<svg xmlns="http://www.w3.org/2000/svg" viewBox="0 0 24 24" fill="#00aaff">
  <title>REST API</title>
  <path d="M12 2a1 1 0 0 1 1 1v1.17a3.001 3.001 0 0 1 0 5.66V10a1 1 0 1 1-2 0V9.83a3.001 3.001 0 0 1 0-5.66V3a1 1 0 0 1 1-1Zm0 4a1 1 0 1 0 0 2 1 1 0 0 0 0-2Zm-9 5a1 1 0 0 1 1 1v1.17a3.001 3.001 0 0 1 0 5.66V20a1 1 0 1 1-2 0v-1.17a3.001 3.001 0 0 1 0-5.66V12a1 1 0 0 1 1-1Zm0 4a1 1 0 1 0 0 2 1 1 0 0 0 0-2Zm18-4a1 1 0 0 1 1 1v1.17a3.001 3.001 0 0 1 0 5.66V20a1 1 0 1 1-2 0v-1.17a3.001 3.001 0 0 1 0-5.66V12a1 1 0 0 1 1-1Zm0 4a1 1 0 1 0 0 2 1 1 0 0 0 0-2Z"></path>
</svg>
